<?xml version="1.0" encoding="UTF-8"?>
<!DOCTYPE svg PUBLIC "-//W3C//DTD SVG 1.1//EN" "http://www.w3.org/Graphics/SVG/1.1/DTD/svg11.dtd">
<svg xmlns="http://www.w3.org/2000/svg" xmlns:xlink="http://www.w3.org/1999/xlink" viewBox="600 100 360 200">
  <g id="scruffy_graph">
    <g transform="translate(0.0, 0.0)" id="background">
      <defs>
        <linearGradient y1="0%" x2="0%" y2="100%" id="BackgroundGradient" x1="0%">
          <stop stop-color="black" offset="5%"/>
          <stop stop-color="#4A465A" offset="95%"/>
        </linearGradient>
      </defs>
      <rect width="600.0" y="0" height="360.0" x="0" fill="url(#BackgroundGradient)"/>
    </g>
    <g transform="translate(30.0, 7.2)" id="title">
      <text font-family="" class="title" y="25.2" font-size="25.2" stroke-width="0" text-anchor="middle" stroke="none" x="270.0" fill="white">Brewing Session Temperatures</text>
    </g>
    <g transform="translate(12.0, 93.6)" id="view">
      <g>
        <g transform="translate(0.0, 4.752)" id="values">
          <text font-family="" y="211.464" font-size="16.91712" text-anchor="end" x="96.12" fill="white">3,190</text>
          <text font-family="" y="158.598" font-size="16.91712" text-anchor="end" x="96.12" fill="white">3,190</text>
          <text font-family="" y="105.732" font-size="16.91712" text-anchor="end" x="96.12" fill="white">3,190</text>
          <text font-family="" y="52.866" font-size="16.91712" text-anchor="end" x="96.12" fill="white">3,190</text>
          <text font-family="" y="0.0" font-size="16.91712" text-anchor="end" x="96.12" fill="white">3,190</text>
        </g>
        <g transform="translate(106.8, 0.0)" id="grid">
          <line y1="0.0" x2="427.2" y2="0.0" style="stroke: white; stroke-width: 2;" x1="0"/>
          <line y1="52.866" x2="427.2" y2="52.866" style="stroke: white; stroke-width: 2;" x1="0"/>
          <line y1="105.732" x2="427.2" y2="105.732" style="stroke: white; stroke-width: 2;" x1="0"/>
          <line y1="158.598" x2="427.2" y2="158.598" style="stroke: white; stroke-width: 2;" x1="0"/>
          <line y1="211.464" x2="427.2" y2="211.464" style="stroke: white; stroke-width: 2;" x1="0"/>
        </g>
        <g transform="translate(106.8, 218.592)" id="labels">
        </g>
        <g transform="translate(106.8, 0.0)" id="graphs">
          <g class="graph_layer" id="component_graphs_graph_0">
            <g class="shadow" transform="translate(1.05732, 1.05732)">
              <polyline points="0.0,211.464 106.8,211.464 213.6,211.464 320.4,211.464 427.2,211.464" style="fill-opacity: 0; stroke-opacity: 0.35" stroke-width="4.22928" stroke="black" fill="transparent"/>
              <circle r="4.22928" style="stroke-width: 4.22928; stroke: black; opacity: 0.35;" cx="0.0" cy="213.367176"/>
              <circle r="4.22928" style="stroke-width: 4.22928; stroke: black; opacity: 0.35;" cx="106.8" cy="213.367176"/>
              <circle r="4.22928" style="stroke-width: 4.22928; stroke: black; opacity: 0.35;" cx="213.6" cy="213.367176"/>
              <circle r="4.22928" style="stroke-width: 4.22928; stroke: black; opacity: 0.35;" cx="320.4" cy="213.367176"/>
              <circle r="4.22928" style="stroke-width: 4.22928; stroke: black; opacity: 0.35;" cx="427.2" cy="213.367176"/>
            </g>
            <polyline points="0.0,211.464 106.8,211.464 213.6,211.464 320.4,211.464 427.2,211.464" stroke-width="4.22928" stroke="#6886B4" fill="none"/>
            <circle r="4.22928" style="stroke-width: 4.22928; stroke: #6886B4; fill: #6886B4" cx="0.0" cy="211.464"/>
            <circle r="4.22928" style="stroke-width: 4.22928; stroke: #6886B4; fill: #6886B4" cx="106.8" cy="211.464"/>
            <circle r="4.22928" style="stroke-width: 4.22928; stroke: #6886B4; fill: #6886B4" cx="213.6" cy="211.464"/>
            <circle r="4.22928" style="stroke-width: 4.22928; stroke: #6886B4; fill: #6886B4" cx="320.4" cy="211.464"/>
            <circle r="4.22928" style="stroke-width: 4.22928; stroke: #6886B4; fill: #6886B4" cx="427.2" cy="211.464"/>
          </g>
        </g>
      </g>
    </g>
    <g transform="translate(30.0, 46.8)" id="legend">
      <rect y="0" width="10.8" height="10.8" x="199.8" fill="#6886B4"/>
      <text font-family="" y="11.664" font-size="15.552" style="color: white" x="219.24" fill="white">Temperatures</text>
    </g>
  </g>
</svg>
